# xmcd
#
# Track frame offsets:
#	150
#	4430
#	22039
#	41210
#	61819
#	79707
#	102065
#	121426
#	145302
#	163222
#	181991
#	198993
#	214489
#	240897
#
# Disc length: 3273 seconds
#
# Revision: 0
# Processed by: cddbd v1.5.2PL0 Copyright (c) Steve Scherf et al.
# Submitted via: EasyCDDAExtractor 10.0.2.1
#
DISCID=c30cc70e
DTITLE=Various Artist - The Vibe Room
DYEAR=2006
DGENRE=R&B
TTITLE0=Kendall Duff  - Intro
TTITLE1=2 Way - Everything You Need
TTITLE2=Kloud 9 - Didn't Think
TTITLE3=Men-nefer - Jonesin'
TTITLE4=Leza - Treasure
TTITLE5=Tim Dillinger - Ooh Baby I
TTITLE6=Althea Rene - I Can
TTITLE7=Maysa - Runnin'
TTITLE8=Men-nefer - Sunny Day
TTITLE9=2 Way - Get Away
TTITLE10=Leza - You Got Me
TTITLE11=Tia Smedley - Feel Love
TTITLE12=Michael Fair - Chill Funk
TTITLE13=Kendall Duffie - Outro
EXTD=
EXTT0=
EXTT1=
EXTT2=
EXTT3=
EXTT4=
EXTT5=
EXTT6=
EXTT7=
EXTT8=
EXTT9=
EXTT10=
EXTT11=
EXTT12=
EXTT13=
PLAYORDER=
